<svg width="38" height="38" fill="none" xmlns="http://www.w3.org/2000/svg"><path fill-rule="evenodd" clip-rule="evenodd" d="M18.325.833c0-.46.373-.833.833-.833 10.265 0 18.615 8.348 18.615 18.61a.834.834 0 01-1.667 0c0-9.342-7.603-16.943-16.948-16.943a.834.834 0 01-.833-.834zm8.465 22.323c3.82.854 6.09 1.585 8.993 2.902.902.407 1.545 2.355 1.129 3.417a19.453 19.453 0 01-4.404 6.771 20.146 20.146 0 01-1.763 1.55l-.218.172-.817.012c-7.2 0-14.658-3.329-20.462-9.13C3.155 22.756-.17 15.1.007 7.73l.006-.277.17-.217c.49-.626 1.01-1.218 1.549-1.76A19.538 19.538 0 018.51 1.063 2.18 2.18 0 019.297.93c.888 0 2.343.471 2.651 1.326.904 2.502 2.045 5.775 2.869 8.902.18.663-.07 2.382-.869 2.883L11 15.913c-.198.123-.278.345-.31.512-.098.501.087 1.15.48 1.691a42.467 42.467 0 004.015 4.704 41.868 41.868 0 004.678 3.986c.807.592 1.914.649 2.202.182l1.875-2.962c.58-.905 2.368-.915 2.387-.915.176 0 .328.015.463.045zM19.155 6.888c6.465 0 11.725 5.258 11.725 11.722a.833.833 0 101.667 0c0-7.382-6.007-13.389-13.392-13.389a.834.834 0 000 1.667zm6.223 11.721a6.23 6.23 0 00-6.223-6.22.834.834 0 010-1.666c4.35 0 7.89 3.538 7.89 7.886a.833.833 0 11-1.667 0z" fill="#fff"/></svg>