<svg width="24" height="27" fill="none" xmlns="http://www.w3.org/2000/svg"><path fill-rule="evenodd" clip-rule="evenodd" d="M9.952 27a1.12 1.12 0 010-2.239h2.258v-1.737a13.265 13.265 0 01-8.305-3.843A13.243 13.243 0 010 9.755 13.24 13.24 0 013.905.328 1.118 1.118 0 015.489 1.91a11.018 11.018 0 00-3.25 7.845 11.02 11.02 0 003.249 7.843 11.022 11.022 0 007.842 3.247c2.963 0 5.748-1.153 7.844-3.247.211-.212.492-.327.792-.327a1.115 1.115 0 011.118 1.12c0 .299-.117.58-.329.791a13.276 13.276 0 01-8.307 3.842v1.737h2.26a1.12 1.12 0 110 2.239H9.953z" fill="#22C3CA"/><path fill-rule="evenodd" clip-rule="evenodd" d="M12.978 2.238c-4.06 0-7.364 3.305-7.364 7.367 0 4.063 3.304 7.368 7.364 7.368 4.063 0 7.37-3.305 7.37-7.368 0-4.062-3.306-7.367-7.37-7.367zm0 16.973c-5.295 0-9.603-4.31-9.603-9.606S7.683 0 12.978 0c5.298 0 9.609 4.309 9.609 9.605 0 5.297-4.311 9.605-9.609 9.605z" fill="#22C3CA"/></svg>