<svg xmlns="http://www.w3.org/2000/svg" width="41" height="41"><style/><g id="Magellan-Home-Desktop HD"><g id="Footer HD"><g id="Social"><path id="Instagram Icon" fill-rule="evenodd" d="M33.5 15.27c0-3.73-3.04-6.77-6.77-6.77H15.27c-3.73 0-6.77 3.04-6.77 6.77v11.46c0 3.73 3.04 6.77 6.77 6.77h11.46c3.73 0 6.77-3.04 6.77-6.77V15.27zM21 1c11.04 0 20 8.96 20 20 0 11.05-8.96 20-20 20C9.95 41 1 32.05 1 21 1 9.96 9.95 1 21 1zm-4.17 20c0-2.3 1.87-4.17 4.17-4.17s4.17 1.87 4.17 4.17-1.87 4.17-4.17 4.17-4.17-1.87-4.17-4.17z" fill="#22c3ca"/></g></g></g></svg>