<svg width="16" height="19" fill="none" xmlns="http://www.w3.org/2000/svg"><path fill-rule="evenodd" clip-rule="evenodd" d="M0 7.969C0 3.575 3.588 0 8 0c4.411 0 8 3.575 8 7.969 0 4.315-7.418 10.665-7.734 10.933a.413.413 0 01-.532 0C7.418 18.634 0 12.284 0 7.969zm1 .003c0 3.423 5.704 8.677 7 9.827 1.297-1.15 7-6.404 7-9.827C15 4.128 11.86 1 8 1S1 4.128 1 7.972zM8.008 4C5.807 4 4.016 5.784 4.016 7.977c0 2.192 1.79 3.976 3.992 3.976S12 10.168 12 7.977C12 5.784 10.21 4 8.008 4zM5 7.988a2.998 2.998 0 003 2.988c1.654 0 3-1.34 3-2.988A2.997 2.997 0 008 5C6.348 5 5 6.34 5 7.988z" fill="#35424B"/></svg>