<svg width="21" height="24" fill="none" xmlns="http://www.w3.org/2000/svg"><path fill-rule="evenodd" clip-rule="evenodd" d="M1.784 23.021a.796.796 0 01-.33-.073l-.008-.005a.841.841 0 01-.26-.19l-.002-.005 6.524-5.934a.505.505 0 00.145-.108c.014-.016.018-.035.03-.052l2.619-2.382 9.314 8.476-.005.008a.807.807 0 01-.192.142c-.027.016-.048.04-.078.053a.79.79 0 01-.325.07H1.784zM.96 11.091l5.798 5.274L.96 21.64V11.09zm9.58-9.958l9.5 8.312v.333l-6.52 5.93-2.7-2.456a.474.474 0 00-.639 0L7.48 15.709.96 9.78v-.334l9.58-8.312zm3.702 15.232l5.798-5.276V21.64l-5.798-5.275zM21 9.22a.494.494 0 00-.167-.372L10.854.118a.472.472 0 00-.623-.001L.17 8.847A.494.494 0 000 9.22v12.96c0 .228.046.442.12.643v.002l.002.003a1.793 1.793 0 00.287.497c.208.261.484.46.804.57l.085.028c.155.045.316.077.486.077h17.432c.17 0 .33-.032.486-.077.03-.01.06-.017.088-.028a1.78 1.78 0 00.8-.569l.035-.041c.105-.14.192-.294.254-.461v-.002c.075-.2.121-.414.121-.642V9.22z" fill="#35424B"/></svg>