<svg width="16" height="24" fill="none" xmlns="http://www.w3.org/2000/svg"><path fill-rule="evenodd" clip-rule="evenodd" d="M1.066 22.956h13.867V1.044H1.066v21.912zM15.467 24H.533A.527.527 0 010 23.479V.521C0 .233.238 0 .533 0h14.934c.295 0 .533.233.533.521v22.958a.527.527 0 01-.533.521z" fill="#35424B"/><path fill-rule="evenodd" clip-rule="evenodd" d="M3.2 16.694h9.6V4.522H3.2v12.172zm10.133 1.044H2.667a.527.527 0 01-.533-.521V4.001c0-.289.238-.522.533-.522h10.666c.295 0 .533.233.533.522v13.216a.527.527 0 01-.533.521zm-4.066 2.327c0 .684-.568 1.24-1.267 1.24-.7 0-1.266-.556-1.266-1.24 0-.684.566-1.239 1.266-1.239.699 0 1.267.555 1.267 1.24z" fill="#35424B"/></svg>