<svg width="25" height="32" fill="none" xmlns="http://www.w3.org/2000/svg"><g filter="url(#filter0_dd)" fill-rule="evenodd" clip-rule="evenodd" fill="#22C3CA"><path d="M15.496 8.928l-.474 6.898c-.03.36-.303.664-.6.664H10.1c-.297 0-.572-.302-.6-.66l-.474-6.905c-.004-.048.012-.082.019-.122l.194-.243c.025-.031.035-.068.053-.103a.721.721 0 01.383-.117h5.174c.148 0 .274.048.383.117.017.034.029.072.053.103l.19.238c.009.042.025.079.02.13zm4.91 4.364L16.435 8.31a1.554 1.554 0 00-.305-.486 1.749 1.749 0 00-1.28-.538H9.675c-.496 0-.967.199-1.286.544a1.542 1.542 0 00-.305.489L4.116 13.29a.527.527 0 10.823.658l3.108-3.895.403 5.853c.068.917.794 1.636 1.65 1.636h.175a.52.52 0 00-.38.497v5.434a.526.526 0 001.054 0V18.04a.52.52 0 00-.38-.497h3.384a.52.52 0 00-.38.497v5.434a.525.525 0 101.054 0V18.04a.52.52 0 00-.38-.497h.175c.853 0 1.578-.718 1.65-1.64l.403-5.852 3.109 3.898a.53.53 0 00.74.083.525.525 0 00.083-.74zM12.26 1.054a1.63 1.63 0 01.001 3.261 1.633 1.633 0 01-1.63-1.632c0-.898.732-1.63 1.63-1.63zm0 4.314a2.689 2.689 0 002.685-2.685A2.688 2.688 0 0012.26 0a2.687 2.687 0 00-2.683 2.683 2.688 2.688 0 002.683 2.685z"/></g><defs><filter id="filter0_dd" x="0" y="0" width="24.522" height="32" filterUnits="userSpaceOnUse" color-interpolation-filters="sRGB"><feFlood flood-opacity="0" result="BackgroundImageFix"/><feColorMatrix in="SourceAlpha" values="0 0 0 0 0 0 0 0 0 0 0 0 0 0 0 0 0 0 127 0"/><feOffset dy="4"/><feGaussianBlur stdDeviation="2"/><feColorMatrix values="0 0 0 0 0 0 0 0 0 0 0 0 0 0 0 0 0 0 0.25 0"/><feBlend in2="BackgroundImageFix" result="effect1_dropShadow"/><feColorMatrix in="SourceAlpha" values="0 0 0 0 0 0 0 0 0 0 0 0 0 0 0 0 0 0 127 0"/><feOffset dy="4"/><feGaussianBlur stdDeviation="2"/><feColorMatrix values="0 0 0 0 0 0 0 0 0 0 0 0 0 0 0 0 0 0 0.25 0"/><feBlend in2="effect1_dropShadow" result="effect2_dropShadow"/><feBlend in="SourceGraphic" in2="effect2_dropShadow" result="shape"/></filter></defs></svg>