<svg width="32" height="32" fill="none" xmlns="http://www.w3.org/2000/svg"><path fill-rule="evenodd" clip-rule="evenodd" d="M16 .711C7.57.711.711 7.57.711 16S7.57 31.289 16 31.289 31.289 24.43 31.289 16 24.43.711 16 .711zM16 32C7.177 32 0 24.822 0 16 0 7.177 7.177 0 16 0s16 7.177 16 16c0 8.822-7.177 16-16 16z" fill="#22C3CA"/><path fill-rule="evenodd" clip-rule="evenodd" d="M8.653 11.33c-.032 2.917 1.308 5.943 3.688 8.324l.052.053c2.341 2.34 5.34 3.685 8.225 3.685l.097-.002c.212-.17.411-.348.595-.53a7.603 7.603 0 001.718-2.644c.046-.118-.065-.49-.154-.579-1.147-.513-2.08-.814-3.657-1.165-.227-.004-.44.058-.493.098l-.766 1.22c-.342.555-1.28.619-1.96.12a18.572 18.572 0 01-2.08-1.773 18.825 18.825 0 01-1.784-2.09c-.286-.392-.41-.87-.329-1.278.058-.296.218-.54.452-.684l1.256-.797c.024-.05.08-.355.063-.451-.344-1.304-.825-2.681-1.205-3.735-.025.006-.267-.097-.462-.097-.055 0-.078.01-.079.01-1 .387-1.89.967-2.646 1.722a7.66 7.66 0 00-.53.594zm11.965 12.773c-3.072 0-6.254-1.42-8.73-3.896-2.6-2.6-4.019-5.866-3.943-9.01l.002-.119.073-.092c.209-.268.43-.52.66-.751a8.333 8.333 0 012.893-1.883.931.931 0 01.336-.058c.378 0 1 .202 1.13.566.386 1.068.873 2.464 1.225 3.798.076.284-.03 1.017-.37 1.231l-1.259.799c-.085.052-.118.147-.132.217-.042.215.037.492.205.723.494.677 1.07 1.352 1.713 2.006a17.66 17.66 0 001.996 1.701c.344.252.816.277.94.077l.8-1.263c.247-.386 1.01-.39 1.017-.39.076 0 .14.006.198.018 1.63.365 2.599.677 3.837 1.24.385.173.66 1.004.482 1.456a8.296 8.296 0 01-1.88 2.89 8.737 8.737 0 01-.752.662l-.093.072-.348.006zm3.085-7.909a.356.356 0 01-.356-.356c0-3.986-3.244-7.229-7.231-7.229a.356.356 0 010-.711c4.38 0 7.942 3.562 7.942 7.94a.355.355 0 01-.355.356z" fill="#22C3CA"/><path fill-rule="evenodd" clip-rule="evenodd" d="M21.473 16.194a.356.356 0 01-.356-.356 5.008 5.008 0 00-5.002-5.001.355.355 0 110-.711 5.72 5.72 0 015.713 5.712.355.355 0 01-.355.356z" fill="#22C3CA"/><path fill-rule="evenodd" clip-rule="evenodd" d="M19.126 16.194a.356.356 0 01-.356-.356 2.657 2.657 0 00-2.655-2.654.355.355 0 110-.71 3.37 3.37 0 013.366 3.364c0 .197-.16.356-.355.356z" fill="#22C3CA"/></svg>