<svg width="16" height="16" fill="none" xmlns="http://www.w3.org/2000/svg"><path fill-rule="evenodd" clip-rule="evenodd" d="M3.782 2.36a7.122 7.122 0 00-1.788 1.955l-.345.559h1.904l.076-.266a9.722 9.722 0 01.698-1.788l1.03-1.582L3.782 2.36zm3.217-1.167c-.961.476-1.809 1.642-2.326 3.199l-.16.482h3.015V.93l-.529.263zm1.472 3.681h3.014l-.16-.482C10.809 2.835 9.961 1.669 9 1.193L8.471.93v3.944zm3.196-2.061c.282.546.519 1.149.703 1.795l.075.266h1.896l-.33-.554a5.164 5.164 0 00-.132-.213 21.22 21.22 0 00-.396-.539 17.04 17.04 0 00-.231-.264c-.069-.078-.139-.158-.215-.234l-.215-.206a7.627 7.627 0 00-.273-.249 15.526 15.526 0 00-.279-.219l-1.559-1.023.956 1.44zM1.216 6.086a7.354 7.354 0 00-.162.713l-.021.141C.973 7.322.945 7.669.945 8c0 .335.028.681.088 1.058l.02.133c.044.256.099.494.162.722l.075.268h2.058l-.056-.416a13.06 13.06 0 010-3.531l.057-.416H1.291l-.075.268zm3.045.043a12.213 12.213 0 000 3.742l.047.31h3.22V5.818h-3.22l-.047.311zm4.21 4.052h3.219l.048-.31a12.41 12.41 0 000-3.743l-.048-.31H8.471v4.363zm4.236-3.947a13.25 13.25 0 010 3.531l-.057.416h2.059l.075-.267a7.51 7.51 0 00.163-.718l.02-.134c.06-.381.088-.729.088-1.062 0-.335-.028-.683-.088-1.064l-.018-.122a7.636 7.636 0 00-.165-.728l-.075-.268H12.65l.057.416zM1.994 11.683a7.098 7.098 0 001.788 1.957l1.386.837-.841-1.297a9.73 9.73 0 01-.698-1.789l-.076-.266H1.649l.345.558zm10.375-.292a9.694 9.694 0 01-.702 1.797l-1.117 1.531 1.664-1.071c.026-.021.274-.212.335-.264.079-.066.155-.138.232-.209.15-.141.205-.191.256-.244.076-.076.148-.158.219-.24l.218-.248a14.918 14.918 0 00.404-.549c.048-.072.092-.144.134-.217l.325-.552h-1.892l-.076.266zm-7.696.216c.516 1.558 1.364 2.725 2.326 3.201l.529.262v-3.945H4.512l.161.482zm3.798 3.463l.53-.263c.961-.477 1.808-1.643 2.324-3.2l.16-.482H8.471v3.945zM8 16c-3.248 0-6.236-2.038-7.435-5.072l-.053-.127a10.074 10.074 0 01-.203-.625l-.029-.11a9.44 9.44 0 01-.138-.588c-.014-.074-.064-.421-.064-.421a5.341 5.341 0 01-.04-.302A7.902 7.902 0 010 8c0-.253.014-.505.038-.757.01-.105.026-.211.043-.315 0 0 .047-.332.061-.402.035-.187.08-.369.127-.55l.04-.153c.055-.193.121-.391.193-.588l.053-.127C1.767 2.051 4.76 0 8 0c3.245 0 6.233 2.035 7.433 5.065l.048.122c.086.232.155.443.216.657l.025.1c.053.198.101.391.137.589l.057.368c.017.115.035.23.046.348.024.248.038.499.038.751s-.014.503-.038.753c-.011.122-.03.242-.049.361l-.056.364a6.97 6.97 0 01-.134.574l-.027.109c-.06.209-.129.42-.207.628C14.308 13.905 11.299 16 8 16z" fill="#35424B"/></svg>