<svg xmlns="http://www.w3.org/2000/svg" width="40" height="40"><style/><g id="Magellan-Home-Desktop HD"><g id="Footer HD"><g id="Social"><path id="Page 1" fill-rule="evenodd" d="M20 0c11.04 0 20 8.96 20 20 0 11.05-8.96 20-20 20C8.95 40 0 31.05 0 20 0 8.96 8.95 0 20 0zm14.07 14.2c.1-.28.86-1.07-1.23-1.07h-4.73c-.65 0-1 .25-1.23.83-.81 2.03-1.83 3.95-3.19 5.67-.21.27-.46.52-.73.75-.47.41-.94.32-1.13-.27-.16-.47-.21-.99-.21-1.49-.01-1.3.05-2.6.08-3.9 0-.29 0-.59-.02-.88-.07-.81-.35-1.17-1.15-1.31-1.72-.3-3.45-.28-5.17.02-.55.1-1 .37-1.32.98 1.52.13 1.74 1.19 1.85 2.36.13 1.39.13 2.76-.27 4.1-.21.75-.78.94-1.33.39-.54-.55-1.07-1.15-1.44-1.82-.81-1.46-1.54-2.96-2.25-4.47-.33-.71-.82-.97-1.58-.95-1.23.02-2.46 0-3.68 0-1.61 0-1.23.68-1.17.83 1.23 2.4 2.39 4.84 3.74 7.17.87 1.52 1.93 2.98 3.08 4.3 1.72 1.98 3.87 3.4 6.52 3.78 1.05.15 2.14.07 3.2.04.52-.01.85-.33.91-.88.08-.65.13-1.32.32-1.95.35-1.16 1.03-1.35 1.94-.54.56.51 1.01 1.14 1.57 1.64.63.57 1.28 1.12 2 1.56.36.23.89.2 1.34.21 1.3.01 2.6.01 3.91 0 .55-.01 1.81.01 1.37-1.2-.55-1.25-1.45-2.23-2.4-3.18-.65-.66-1.33-1.3-1.98-1.97-.6-.6-.69-1.06-.21-1.76.82-1.2 1.75-2.33 2.55-3.55.73-1.11 1.36-2.29 2.04-3.44z" fill="#22c3ca"/></g></g></g></svg>